<?xml version="1.0" encoding="UTF-8" standalone="no"?>
<svg
   xmlns:dc="http://purl.org/dc/elements/1.1/"
   xmlns:cc="http://creativecommons.org/ns#"
   xmlns:rdf="http://www.w3.org/1999/02/22-rdf-syntax-ns#"
   xmlns:svg="http://www.w3.org/2000/svg"
   xmlns="http://www.w3.org/2000/svg"
   xmlns:sodipodi="http://sodipodi.sourceforge.net/DTD/sodipodi-0.dtd"
   xmlns:inkscape="http://www.inkscape.org/namespaces/inkscape"
   version="1.1"
   x="0px"
   y="0px"
   viewBox="0 0 65 81.25"
   enable-background="new 0 0 65 65"
   xml:space="preserve"
   id="svg8"
   sodipodi:docname="probe.svg"
   inkscape:version="0.92.2 5c3e80d, 2017-08-06"><metadata
     id="metadata14"><rdf:RDF><cc:Work
         rdf:about=""><dc:format>image/svg+xml</dc:format><dc:type
           rdf:resource="http://purl.org/dc/dcmitype/StillImage" /></cc:Work></rdf:RDF></metadata><defs
     id="defs12" /><sodipodi:namedview
     pagecolor="#ffffff"
     bordercolor="#666666"
     borderopacity="1"
     objecttolerance="10"
     gridtolerance="10"
     guidetolerance="10"
     inkscape:pageopacity="0"
     inkscape:pageshadow="2"
     inkscape:window-width="1680"
     inkscape:window-height="943"
     id="namedview10"
     showgrid="false"
     inkscape:zoom="12.22412"
     inkscape:cx="32.5005"
     inkscape:cy="49.232"
     inkscape:window-x="0"
     inkscape:window-y="1"
     inkscape:window-maximized="1"
     inkscape:current-layer="svg8" /><path
     d="M 54.813,35.22 H 50.229 V 18.325 c 0,-0.007 0.002,-0.013 0.002,-0.02 0,-8.903 -8.333,-16.146 -18.577,-16.146 v 0 h -0.001 c -10.23,0 -18.647,6.469 -19.545,14.692 -6.569,0.422 -11.531,3.761 -11.531,7.95 v 7.534 c 0,0.829 0.671,1.5 1.5,1.5 H 5.52 V 54.84 c 0,0.828 0.671,1.5 1.5,1.5 0.829,0 1.5,-0.672 1.5,-1.5 V 33.837 h 9.995 l 0.327222,15.93306 c 0.017,0.827826 0.671,1.5 1.5,1.5 0.829,0 1.517001,-0.672174 1.5,-1.5 L 21.515,33.837 h 3.433 c 0.003,0 0.006,10e-4 0.01,10e-4 0.829,0 1.5,-0.671 1.5,-1.5 v -7.535 c 0,-2.553 -1.846,-4.788 -4.771,-6.242 -0.008,-0.004 -0.015,-0.011 -0.023,-0.015 -0.019,-0.01 -0.039,-0.014 -0.058,-0.022 -1.813,-0.887 -4.032,-1.473 -6.484,-1.653 0.909,-6.575 7.973,-11.71 16.531,-11.71 h 0.001 v 0 c 8.584,0 15.568,5.891 15.576,13.133 0,0.004 -10e-4,0.008 -10e-4,0.012 V 35.22 h -4.584 c -5.299,0 -9.609,4.312 -9.609,9.61 v 7.436 c 0,5.3 4.311,9.611 9.609,9.611 h 12.168 c 5.3,0 9.611,-4.312 9.611,-9.611 V 44.83 c 0,-5.299 -4.312,-9.61 -9.611,-9.61 z m -12.168,3 h 12.168 c 3.646,0 6.611,2.966 6.611,6.61 v 3.11786 h -5.195362 c -0.018,0 -0.035,0.005 -0.053,0.005 -0.048,0.002 -0.094,0.009 -0.141,0.015 -0.053,0.007 -0.104,0.014 -0.155,0.025 -0.041,0.01 -0.08,0.024 -0.12,0.037 -0.052,0.018 -0.153,0.057 -0.153,0.057 -0.04,0.019 -0.076,0.041 -0.114,0.063 -0.045,0.025 -0.09,0.05 -0.132,0.08 -0.039,0.027 -0.074,0.059 -0.11,0.09 -0.037,0.032 0.242,-0.17 -0.107,0.1 -0.032,0.033 -0.061,0.07 -0.089,0.107 -0.033,0.042 -0.065,0.083 -0.094,0.129 -0.009,0.014 -0.02,0.024 -0.028,0.039 L 52.63061,54.815052 47.020936,39.63013 c -10e-4,-0.002 -0.002,-0.003 -0.003,-0.005 -0.031,-0.054 -0.072,-0.104 -0.11,-0.155 -0.022,-0.03 -0.042,-0.064 -0.067,-0.092 -0.002,-0.003 -0.003,-0.006 -0.005,-0.008 -0.035,-0.039 -0.076,-0.07 -0.114,-0.105 -0.033,-0.029 -0.063,-0.063 -0.098,-0.089 -0.059,-0.045 -0.122,-0.081 -0.186,-0.116 -0.021,-0.011 -0.038,-0.025 -0.06,-0.036 -0.071,-0.035 -0.146,-0.061 -0.221,-0.084 -0.017,-0.006 -0.031,-0.013 -0.048,-0.018 -0.073,-0.021 -0.147,-0.031 -0.224,-0.04 -0.021,-0.002 -0.041,-0.008 -0.062,-0.01 -0.07,-0.005 -0.14,-10e-4 -0.209,0.004 -0.027,0.002 -0.055,0 -0.082,0.003 -0.068,0.008 -0.136,0.025 -0.202,0.044 -0.028,0.007 -0.104069,0.02248 -0.131069,0.03248 -0.072,0.023 -0.09393,0.04452 -0.162931,0.07952 -0.02,0.01 -0.041,0.016 -0.061,0.026 -10e-4,0.001 0.002,-10e-4 0,0 -0.05,0.028 -0.099,0.068 -0.147,0.104 -0.035,0.026 -0.074,0.049 -0.107,0.077 -0.002,0.002 -0.004,0.003 -0.006,0.005 L 40.382,47.459027 H 36.033 V 44.83 C 36.035,41.186 39,38.22 42.645,38.22 Z M 54.813,58.877 H 42.645 c -3.645,0 -6.609,-2.966 -6.609,-6.611 v -2.627027 l 4.674584,-0.08181 v 0 h 0.001 10e-4 c 0.17,-0.001 0.33,-0.035 0.482,-0.087 0.02,-0.007 0.038,-0.011 0.058,-0.019 0.154,-0.06 -0.058,0.019 0.419,-0.251 0.011,-0.01 0.025,-0.013 0.036,-0.022 l 4.005807,-7.349089 5.59222,15.102868 c 0.011,0.019 0.026,0.031 0.037,0.049 0.05,0.08 0.107,0.156 0.172,0.227 0.022,0.023 0.042,0.048 0.064,0.069 0.084,0.08 0.175,0.154 0.279,0.215 0.001,10e-4 0.003,10e-4 0.005,0.002 0.09,0.052 0.188,0.087 0.286,0.119 0.151,0.049 0.307,0.082 0.462,0.082 h 0.001 10e-4 c 0.126,0 0.254,-0.017 0.379,-0.049 0.064,-0.018 0.123,-0.05 0.185,-0.075 0.058,-0.023 0.117,-0.038 0.173,-0.069 0.106,-0.06 0.198,-0.134 0.284,-0.213 0.023,-0.022 0.044,-0.048 0.066,-0.071 0.065,-0.069 0.122,-0.143 0.173,-0.222 0.011,-0.017 0.026,-0.029 0.036,-0.047 L 56.52,50.048 h 4.904 v 2.218 c 0,3.645 -2.966,6.611 -6.611,6.611 z"
     id="path2"
     inkscape:connector-curvature="0"
     sodipodi:nodetypes="scssccscssscsssccssscssssccccscccscssssssssssscscccccccccccccccccccccccccccccccccccccccsssscccccccccccccccccscscccccccccss"
     style="fill:#550000" /></svg>