<?xml version="1.0" encoding="UTF-8" standalone="no"?>
<!DOCTYPE svg PUBLIC "-//W3C//DTD SVG 1.1//EN" "http://www.w3.org/Graphics/SVG/1.1/DTD/svg11.dtd">
<svg version="1.1" xmlns="http://www.w3.org/2000/svg" xmlns:xlink="http://www.w3.org/1999/xlink" preserveAspectRatio="xMidYMid meet" viewBox="0 0 640 640" width="640" height="640"><defs><path d="M304.29 442.86C212.83 442.86 138.57 373.08 138.57 287.14C138.57 201.2 212.83 131.43 304.29 131.43C395.75 131.43 470 201.2 470 287.14C470 373.08 395.75 442.86 304.29 442.86Z" id="b1JgRn5gUP"></path><path d="M304.29 442.86C212.83 442.86 138.57 373.08 138.57 287.14C138.57 201.2 212.83 131.43 304.29 131.43C395.75 131.43 470 201.2 470 287.14C470 373.08 395.75 442.86 304.29 442.86Z" id="a4McSUg23S"></path><path d="M409.05 393.81L199.52 180.48" id="a7D9kHQ0v"></path><path d="M199.52 393.81L409.05 180.48" id="c2D06004qE"></path><path d="M304.29 329.36C280.11 329.36 260.48 310.45 260.48 287.15C260.48 263.84 280.11 244.93 304.29 244.93C328.46 244.93 348.1 263.84 348.1 287.15C348.1 310.45 328.46 329.36 304.29 329.36Z" id="h14powVVjB"></path><path d="M193.36 218.01C169.18 218.01 149.55 199.1 149.55 175.79C149.55 152.49 169.18 133.58 193.36 133.58C217.53 133.58 237.17 152.49 237.17 175.79C237.17 199.1 217.53 218.01 193.36 218.01Z" id="a1hAgp3QHX"></path><path d="M415.43 443.41C391.25 443.41 371.62 424.5 371.62 401.19C371.62 377.89 391.25 358.98 415.43 358.98C439.6 358.98 459.24 377.89 459.24 401.19C459.24 424.5 439.6 443.41 415.43 443.41Z" id="a1dDyyJq4q"></path><path d="M415.43 218.01C391.25 218.01 371.62 199.1 371.62 175.79C371.62 152.49 391.25 133.58 415.43 133.58C439.6 133.58 459.24 152.49 459.24 175.79C459.24 199.1 439.6 218.01 415.43 218.01Z" id="agOKe0Zuw"></path><path d="M193.36 443.41C169.18 443.41 149.55 424.5 149.55 401.19C149.55 377.89 169.18 358.98 193.36 358.98C217.53 358.98 237.17 377.89 237.17 401.19C237.17 424.5 217.53 443.41 193.36 443.41Z" id="aeedPekiq"></path></defs><g><g><g><use xlink:href="#b1JgRn5gUP" opacity="1" fill="#3168aa" fill-opacity="0"></use><g><use xlink:href="#b1JgRn5gUP" opacity="1" fill-opacity="0" stroke="#000000" stroke-width="1" stroke-opacity="0"></use></g></g><g><use xlink:href="#a4McSUg23S" opacity="1" fill="#000000" fill-opacity="0"></use><g><use xlink:href="#a4McSUg23S" opacity="1" fill-opacity="0" stroke="#000000" stroke-width="30" stroke-opacity="1"></use></g></g><g><use xlink:href="#a7D9kHQ0v" opacity="1" fill="#000000" fill-opacity="0"></use><g><use xlink:href="#a7D9kHQ0v" opacity="1" fill-opacity="0" stroke="#000102" stroke-width="30" stroke-opacity="1"></use></g></g><g><use xlink:href="#c2D06004qE" opacity="1" fill="#000000" fill-opacity="0"></use><g><use xlink:href="#c2D06004qE" opacity="1" fill-opacity="0" stroke="#000102" stroke-width="30" stroke-opacity="1"></use></g></g><g><use xlink:href="#h14powVVjB" opacity="1" fill="#c40000" fill-opacity="1"></use><g><use xlink:href="#h14powVVjB" opacity="1" fill-opacity="0" stroke="#000102" stroke-width="20" stroke-opacity="1"></use></g></g><g><use xlink:href="#a1hAgp3QHX" opacity="1" fill="#c40000" fill-opacity="1"></use><g><use xlink:href="#a1hAgp3QHX" opacity="1" fill-opacity="0" stroke="#000102" stroke-width="20" stroke-opacity="1"></use></g></g><g><use xlink:href="#a1dDyyJq4q" opacity="1" fill="#c40000" fill-opacity="1"></use><g><use xlink:href="#a1dDyyJq4q" opacity="1" fill-opacity="0" stroke="#000102" stroke-width="20" stroke-opacity="1"></use></g></g><g><use xlink:href="#agOKe0Zuw" opacity="1" fill="#c40000" fill-opacity="1"></use><g><use xlink:href="#agOKe0Zuw" opacity="1" fill-opacity="0" stroke="#000102" stroke-width="20" stroke-opacity="1"></use></g></g><g><use xlink:href="#aeedPekiq" opacity="1" fill="#c40000" fill-opacity="1"></use><g><use xlink:href="#aeedPekiq" opacity="1" fill-opacity="0" stroke="#000102" stroke-width="20" stroke-opacity="1"></use></g></g></g></g></svg>