<?xml version="1.0" encoding="UTF-8" standalone="no"?>
<!DOCTYPE svg PUBLIC "-//W3C//DTD SVG 1.1//EN" "http://www.w3.org/Graphics/SVG/1.1/DTD/svg11.dtd">
<svg version="1.1" xmlns="http://www.w3.org/2000/svg" xmlns:xlink="http://www.w3.org/1999/xlink" preserveAspectRatio="xMidYMid meet" viewBox="0 0 640 640" width="640" height="640"><defs><path d="M470 287.14C470 373.08 395.75 442.86 304.29 442.86C212.83 442.86 138.57 373.08 138.57 287.14C138.57 201.2 212.83 131.43 304.29 131.43C395.75 131.43 470 201.2 470 287.14Z" id="a1DRBr9u11"></path><path d="M409.05 393.81L199.52 180.48" id="bgxX2dhAT"></path><path d="M199.52 393.81L409.05 180.48" id="dTOPagKZb"></path><path d="M348.1 289.83C348.1 312.08 328.46 330.14 304.29 330.14C280.11 330.14 260.48 312.08 260.48 289.83C260.48 267.58 280.11 249.52 304.29 249.52C328.46 249.52 348.1 267.58 348.1 289.83Z" id="bq3tPQ0aC"></path><path d="M238.37 173.89C238.37 196.13 218.74 214.19 194.56 214.19C170.38 214.19 150.75 196.13 150.75 173.89C150.75 151.64 170.38 133.58 194.56 133.58C218.74 133.58 238.37 151.64 238.37 173.89Z" id="cb06xwwL"></path><path d="M463.05 171.74C463.05 193.98 443.42 212.04 419.24 212.04C395.06 212.04 375.43 193.98 375.43 171.74C375.43 149.49 395.06 131.43 419.24 131.43C443.42 131.43 463.05 149.49 463.05 171.74Z" id="a1CWNu2dQ"></path><path d="M463.05 401.44C463.05 423.69 443.42 441.75 419.24 441.75C395.06 441.75 375.43 423.69 375.43 401.44C375.43 379.19 395.06 361.13 419.24 361.13C443.42 361.13 463.05 379.19 463.05 401.44Z" id="a7g9MCMA5b"></path><path d="M236.22 399.29C236.22 421.53 216.59 439.6 192.41 439.6C168.23 439.6 148.6 421.53 148.6 399.29C148.6 377.04 168.23 358.98 192.41 358.98C216.59 358.98 236.22 377.04 236.22 399.29Z" id="d2hjtpkqAW"></path></defs><g><g><g><use xlink:href="#a1DRBr9u11" opacity="1" fill="#3168aa" fill-opacity="0"></use><g><use xlink:href="#a1DRBr9u11" opacity="1" fill-opacity="0" stroke="#000000" stroke-width="30" stroke-opacity="1"></use></g></g><g><g><use xlink:href="#bgxX2dhAT" opacity="1" fill-opacity="0" stroke="#000102" stroke-width="30" stroke-opacity="1"></use></g></g><g><g><use xlink:href="#dTOPagKZb" opacity="1" fill-opacity="0" stroke="#000102" stroke-width="30" stroke-opacity="1"></use></g></g><g><use xlink:href="#bq3tPQ0aC" opacity="1" fill="#3168aa" fill-opacity="1"></use><g><use xlink:href="#bq3tPQ0aC" opacity="1" fill-opacity="0" stroke="#000102" stroke-width="10" stroke-opacity="1"></use></g></g><g><use xlink:href="#cb06xwwL" opacity="1" fill="#3168aa" fill-opacity="1"></use><g><use xlink:href="#cb06xwwL" opacity="1" fill-opacity="0" stroke="#000205" stroke-width="10" stroke-opacity="1"></use></g></g><g><use xlink:href="#a1CWNu2dQ" opacity="1" fill="#3168aa" fill-opacity="1"></use><g><use xlink:href="#a1CWNu2dQ" opacity="1" fill-opacity="0" stroke="#00060c" stroke-width="10" stroke-opacity="1"></use></g></g><g><use xlink:href="#a7g9MCMA5b" opacity="1" fill="#3168aa" fill-opacity="1"></use><g><use xlink:href="#a7g9MCMA5b" opacity="1" fill-opacity="0" stroke="#000205" stroke-width="10" stroke-opacity="1"></use></g></g><g><use xlink:href="#d2hjtpkqAW" opacity="1" fill="#3168aa" fill-opacity="1"></use><g><use xlink:href="#d2hjtpkqAW" opacity="1" fill-opacity="0" stroke="#000000" stroke-width="10" stroke-opacity="1"></use></g></g></g></g></svg>