<?xml version="1.0" encoding="UTF-8" standalone="no"?>
<!DOCTYPE svg PUBLIC "-//W3C//DTD SVG 1.1//EN" "http://www.w3.org/Graphics/SVG/1.1/DTD/svg11.dtd">
<svg version="1.1" xmlns="http://www.w3.org/2000/svg" xmlns:xlink="http://www.w3.org/1999/xlink" preserveAspectRatio="xMidYMid meet" viewBox="0 0 640 640" width="640" height="640"><defs><path d="M138.57 287.14C138.57 201.2 212.83 131.43 304.29 131.43C395.75 131.43 470 201.2 470 287.14C470 373.08 395.75 442.86 304.29 442.86C212.83 442.86 138.57 373.08 138.57 287.14Z" id="a2s19FHXGI"></path><path d="M138.57 287.14C138.57 201.2 212.83 131.43 304.29 131.43C395.75 131.43 470 201.2 470 287.14C470 373.08 395.75 442.86 304.29 442.86C212.83 442.86 138.57 373.08 138.57 287.14Z" id="e15Q1DtY1N"></path><path d="M138.57 287.14C138.57 201.2 212.83 131.43 304.29 131.43C395.75 131.43 470 201.2 470 287.14C470 373.08 395.75 442.86 304.29 442.86C212.83 442.86 138.57 373.08 138.57 287.14Z" id="a1NnFwcbdv"></path><path d="M138.57 287.14C138.57 201.2 212.83 131.43 304.29 131.43C395.75 131.43 470 201.2 470 287.14C470 373.08 395.75 442.86 304.29 442.86C212.83 442.86 138.57 373.08 138.57 287.14Z" id="bInNWZRmX"></path><path d="M409.05 393.81L199.52 180.48" id="an6fKIKV"></path><path d="M409.05 393.81L199.52 180.48" id="a6A5gREY3E"></path><path d="M199.52 393.81L409.05 180.48" id="actnwwuoS"></path><path d="M199.52 393.81L409.05 180.48" id="frP4ybK2i"></path><path d="M260.48 287.15C260.48 263.84 280.11 244.93 304.29 244.93C328.46 244.93 348.1 263.84 348.1 287.15C348.1 310.45 328.46 329.36 304.29 329.36C280.11 329.36 260.48 310.45 260.48 287.15Z" id="f1cutKYdvH"></path><path d="M260.48 287.15C260.48 263.84 280.11 244.93 304.29 244.93C328.46 244.93 348.1 263.84 348.1 287.15C348.1 310.45 328.46 329.36 304.29 329.36C280.11 329.36 260.48 310.45 260.48 287.15Z" id="a24LocU7"></path><path d="M149.55 175.79C149.55 152.49 169.18 133.58 193.36 133.58C217.53 133.58 237.17 152.49 237.17 175.79C237.17 199.1 217.53 218.01 193.36 218.01C169.18 218.01 149.55 199.1 149.55 175.79Z" id="a3CyebFKed"></path><path d="M149.55 175.79C149.55 152.49 169.18 133.58 193.36 133.58C217.53 133.58 237.17 152.49 237.17 175.79C237.17 199.1 217.53 218.01 193.36 218.01C169.18 218.01 149.55 199.1 149.55 175.79Z" id="bA75VuZBd"></path><path d="M371.62 401.19C371.62 377.89 391.25 358.98 415.43 358.98C439.6 358.98 459.24 377.89 459.24 401.19C459.24 424.5 439.6 443.41 415.43 443.41C391.25 443.41 371.62 424.5 371.62 401.19Z" id="c37SssJm7"></path><path d="M371.62 401.19C371.62 377.89 391.25 358.98 415.43 358.98C439.6 358.98 459.24 377.89 459.24 401.19C459.24 424.5 439.6 443.41 415.43 443.41C391.25 443.41 371.62 424.5 371.62 401.19Z" id="c1t7nxJ1CC"></path><path d="M371.62 175.79C371.62 152.49 391.25 133.58 415.43 133.58C439.6 133.58 459.24 152.49 459.24 175.79C459.24 199.1 439.6 218.01 415.43 218.01C391.25 218.01 371.62 199.1 371.62 175.79Z" id="b6popHRgK"></path><path d="M371.62 175.79C371.62 152.49 391.25 133.58 415.43 133.58C439.6 133.58 459.24 152.49 459.24 175.79C459.24 199.1 439.6 218.01 415.43 218.01C391.25 218.01 371.62 199.1 371.62 175.79Z" id="c89GjcgErk"></path><path d="M149.55 401.19C149.55 377.89 169.18 358.98 193.36 358.98C217.53 358.98 237.17 377.89 237.17 401.19C237.17 424.5 217.53 443.41 193.36 443.41C169.18 443.41 149.55 424.5 149.55 401.19Z" id="bpYFolvDX"></path><path d="M149.55 400.64C149.55 377.34 169.18 358.43 193.36 358.43C217.53 358.43 237.17 377.34 237.17 400.64C237.17 423.95 217.53 442.86 193.36 442.86C169.18 442.86 149.55 423.95 149.55 400.64Z" id="e19wPqzfSm"></path></defs><g><g><g><use xlink:href="#a2s19FHXGI" opacity="1" fill="#3168aa" fill-opacity="0"></use><g><use xlink:href="#a2s19FHXGI" opacity="1" fill-opacity="0" stroke="#000000" stroke-width="1" stroke-opacity="0"></use></g></g><g><use xlink:href="#e15Q1DtY1N" opacity="1" fill="#000000" fill-opacity="0"></use><g><use xlink:href="#e15Q1DtY1N" opacity="1" fill-opacity="0" stroke="#000000" stroke-width="1" stroke-opacity="0"></use></g></g><g><use xlink:href="#a1NnFwcbdv" opacity="1" fill="#000000" fill-opacity="0"></use><g><use xlink:href="#a1NnFwcbdv" opacity="1" fill-opacity="0" stroke="#000000" stroke-width="1" stroke-opacity="0"></use></g></g><g><use xlink:href="#bInNWZRmX" opacity="1" fill="#000000" fill-opacity="0"></use><g><use xlink:href="#bInNWZRmX" opacity="1" fill-opacity="0" stroke="#000000" stroke-width="30" stroke-opacity="1"></use></g></g><g><use xlink:href="#an6fKIKV" opacity="1" fill="#000000" fill-opacity="0"></use><g><use xlink:href="#an6fKIKV" opacity="1" fill-opacity="0" stroke="#000000" stroke-width="1" stroke-opacity="0"></use></g></g><g><use xlink:href="#a6A5gREY3E" opacity="1" fill="#000000" fill-opacity="0"></use><g><use xlink:href="#a6A5gREY3E" opacity="1" fill-opacity="0" stroke="#000102" stroke-width="30" stroke-opacity="1"></use></g></g><g><use xlink:href="#actnwwuoS" opacity="1" fill="#000000" fill-opacity="0"></use><g><use xlink:href="#actnwwuoS" opacity="1" fill-opacity="0" stroke="#000000" stroke-width="1" stroke-opacity="0"></use></g></g><g><use xlink:href="#frP4ybK2i" opacity="1" fill="#000000" fill-opacity="0"></use><g><use xlink:href="#frP4ybK2i" opacity="1" fill-opacity="0" stroke="#000102" stroke-width="30" stroke-opacity="1"></use></g></g><g><use xlink:href="#f1cutKYdvH" opacity="1" fill="#c40000" fill-opacity="1"></use><g><use xlink:href="#f1cutKYdvH" opacity="1" fill-opacity="0" stroke="#000000" stroke-width="1" stroke-opacity="0"></use></g></g><g><use xlink:href="#a24LocU7" opacity="1" fill="#398ff2" fill-opacity="1"></use><g><use xlink:href="#a24LocU7" opacity="1" fill-opacity="0" stroke="#000102" stroke-width="20" stroke-opacity="1"></use></g></g><g><use xlink:href="#a3CyebFKed" opacity="1" fill="#c40000" fill-opacity="1"></use><g><use xlink:href="#a3CyebFKed" opacity="1" fill-opacity="0" stroke="#000000" stroke-width="1" stroke-opacity="0"></use></g></g><g><use xlink:href="#bA75VuZBd" opacity="1" fill="#398ff2" fill-opacity="1"></use><g><use xlink:href="#bA75VuZBd" opacity="1" fill-opacity="0" stroke="#000102" stroke-width="20" stroke-opacity="1"></use></g></g><g><use xlink:href="#c37SssJm7" opacity="1" fill="#c40000" fill-opacity="1"></use><g><use xlink:href="#c37SssJm7" opacity="1" fill-opacity="0" stroke="#000000" stroke-width="1" stroke-opacity="0"></use></g></g><g><use xlink:href="#c1t7nxJ1CC" opacity="1" fill="#398ff2" fill-opacity="1"></use><g><use xlink:href="#c1t7nxJ1CC" opacity="1" fill-opacity="0" stroke="#000102" stroke-width="20" stroke-opacity="1"></use></g></g><g><use xlink:href="#b6popHRgK" opacity="1" fill="#c40000" fill-opacity="1"></use><g><use xlink:href="#b6popHRgK" opacity="1" fill-opacity="0" stroke="#000000" stroke-width="1" stroke-opacity="0"></use></g></g><g><use xlink:href="#c89GjcgErk" opacity="1" fill="#398ff2" fill-opacity="1"></use><g><use xlink:href="#c89GjcgErk" opacity="1" fill-opacity="0" stroke="#000102" stroke-width="20" stroke-opacity="1"></use></g></g><g><use xlink:href="#bpYFolvDX" opacity="1" fill="#c40000" fill-opacity="1"></use><g><use xlink:href="#bpYFolvDX" opacity="1" fill-opacity="0" stroke="#000000" stroke-width="1" stroke-opacity="0"></use></g></g><g><use xlink:href="#e19wPqzfSm" opacity="1" fill="#398ff2" fill-opacity="1"></use><g><use xlink:href="#e19wPqzfSm" opacity="1" fill-opacity="0" stroke="#000102" stroke-width="20" stroke-opacity="1"></use></g></g></g></g></svg>