<?xml version="1.0" encoding="iso-8859-1"?>
<!-- Generator: Adobe Illustrator 16.0.0, SVG Export Plug-In . SVG Version: 6.00 Build 0)  -->
<!DOCTYPE svg PUBLIC "-//W3C//DTD SVG 1.1//EN" "http://www.w3.org/Graphics/SVG/1.1/DTD/svg11.dtd">
<svg version="1.1" id="Capa_1" xmlns="http://www.w3.org/2000/svg" xmlns:xlink="http://www.w3.org/1999/xlink" x="0px" y="0px"
	 width="187.072px" height="187.072px" viewBox="0 0 187.072 187.072" style="enable-background:new 0 0 187.072 187.072;"
	 xml:space="preserve">
<g>
	<path d="M38.917,95.012c0.28,0.098,0.566,0.135,0.847,0.135c0.542,0,1.084-0.158,1.534-0.5c0.697-0.48,1.108-1.291,1.108-2.143
		V62.926c0-1.446,1.188-2.625,2.646-2.625c1.452,0,2.636,1.172,2.636,2.625v8.482c0,1.413,1.124,2.573,2.54,2.636l4.262,0.168
		c0.825,0.106,1.403-0.216,1.921-0.734c0.518-0.487,0.81-1.169,0.825-1.884l0.061-6.035c0-11.792,9.59-21.376,21.376-21.376
		c2.317,0,4.676,0.435,7.237,1.339c0.283,0.113,0.582,0.152,0.88,0.152c0.076,0,0.119,0,0.131,0c1.458,0,2.643-1.181,2.643-2.646
		c0-0.648-0.229-1.221-0.603-1.69c-6.33-15.089-20.834-24.792-37.18-24.792c-22.256,0-40.356,18.097-40.356,40.356
		C11.418,74.164,22.473,89.465,38.917,95.012z M51.774,21.861c12.602,0,23.949,6.628,30.184,17.284
		c-14.066-1.852-26.786,7.971-29.432,21.187c-1.078-3.093-4.021-5.325-7.48-5.325c-4.372,0-7.925,3.556-7.925,7.913v25.696
		c-12.358-5.669-20.42-17.988-20.42-31.7C16.701,37.586,32.432,21.861,51.774,21.861z M115.676,76.818
		c1.626,1.69,5.779,16.379-19.089,32.601c0,0,10.284-18.745,10.638-30.107C107.28,77.12,111.353,72.319,115.676,76.818z
		 M180.343,55.412c-0.518-0.417-1.278-0.728-1.82-0.633L82.433,58.6c-0.262,0.018-0.518,0.07-0.773,0.149
		c-0.493,0.162-4.914,1.815-5.282,5.807c-0.311,3.248,2.213,6.366,7.587,9.483c0.438,0.286,1.111,0.953,1.224,0.965
		c0,0.012-0.438,0.707-2.986,1.522c-1.321,0.399-2.095,1.803-1.766,3.154c0.012,0.058,1.309,5.712-1.958,9.898
		c-2.637,3.389-7.627,5.112-14.815,5.112l-1.559-0.03c0-0.024-26.941-2.399-45.26,16.757c-12.178,12.727-17.796,31.773-16.712,56.6
		c0.049,1.175,0.892,2.174,2.04,2.441c0.204,0.049,0.399,0.066,0.603,0.066c0.938,0,1.842-0.518,2.32-1.369
		c0.119-0.189,12.06-20.277,81.726-32.273c19.223-3.3,37.758-9.9,53.11-54.145c0.024-0.155,0.578-3.879,5.772-3.879l31.883,1.124
		c0.469-0.083,0.98-0.125,1.406-0.351c0.299-0.18,7.386-4.314,8.031-11.298C187.437,63.9,185.191,59.546,180.343,55.412z
		 M176.933,74.693l-30.099-1.042c-8.5-0.761-11.733,5.361-12.02,7.901c-14.279,41.007-31.271,47.121-48.899,50.141
		c-51.152,8.817-72.354,22.019-80.626,29.459c0.155-20.069,5.307-35.542,15.356-46.059c13.168-13.761,31.158-15.24,38.28-15.24
		c1.65,0,2.643,0.091,2.85,0.104c9.8,0.194,16.916-2.047,20.868-7.119c3.312-4.229,3.517-9.185,3.273-12.059
		c1.873-0.843,4.123-2.332,4.472-4.92c0.472-3.529-3.142-5.979-3.671-6.305c-4.253-2.469-5.115-4.107-5.079-4.481
		c0.027-0.274,0.725-0.862,1.474-1.197l94.57-3.766c2.923,2.713,4.3,5.319,4.086,7.742
		C181.458,71.208,178.273,73.758,176.933,74.693z M71.265,60.962c2.549,0,4.588,2.058,4.588,4.576c0,2.539-2.04,4.597-4.588,4.597
		c-2.539,0-4.597-2.058-4.597-4.597C66.668,63.026,68.72,60.962,71.265,60.962z"/>
</g>
<g>
</g>
<g>
</g>
<g>
</g>
<g>
</g>
<g>
</g>
<g>
</g>
<g>
</g>
<g>
</g>
<g>
</g>
<g>
</g>
<g>
</g>
<g>
</g>
<g>
</g>
<g>
</g>
<g>
</g>
</svg>
